<?xml version="1.0" encoding="UTF-8"?>
<svg id="a" data-name="Lager 1" xmlns="http://www.w3.org/2000/svg" viewBox="0 0 707.19 635.38">
  <defs>
    <style>
      .b {
        fill: #84b4bf;
      }

      .c {
        fill: #1b1c26;
      }

      .d {
        isolation: isolate;
      }
    </style>
  </defs>
  <polygon class="c" points="690.32 559.66 407.79 559.66 392.02 559.66 392.02 575.42 392.02 619.62 392.02 635.38 407.79 635.38 690.32 635.38 706.08 635.38 706.08 619.62 706.08 575.42 706.08 559.66 690.32 559.66"/>
  <polygon class="c" points="257.16 11.66 8.62 138.16 0 142.54 0 152.2 0 186.2 0 195.89 8.64 200.27 257.17 326.21 280.08 337.81 280.08 312.14 280.08 275.92 280.08 266.22 271.42 261.84 87.53 168.93 271.42 76.01 280.08 71.64 280.08 61.94 280.08 25.72 280.08 0 257.16 11.66"/>
  <polygon class="c" points="549.05 0 503.04 0 492.94 0 488.72 9.21 212.71 613.06 202.51 635.38 227.06 635.38 273.07 635.38 283.21 635.38 287.41 626.16 563.39 22.32 573.58 0 549.05 0"/>
  <rect class="c" y="357.03" width="707.19" height="162.63"/>
  <g class="d">
    <g class="d">
      <path class="b" d="m130.62,381.37l-43.3,107.22h-18.02l-43.3-107.22h16.02c1.73,0,3.14.42,4.23,1.26,1.09.84,1.9,1.93,2.45,3.26l25.29,65.4c.84,2.13,1.64,4.46,2.41,7.01.77,2.55,1.49,5.2,2.19,7.97.59-2.77,1.23-5.42,1.93-7.97.69-2.55,1.46-4.88,2.3-7.01l25.14-65.4c.4-1.14,1.17-2.17,2.34-3.12,1.16-.94,2.58-1.41,4.26-1.41h16.09Z"/>
      <path class="b" d="m160.35,390.34c0,1.58-.32,3.07-.96,4.45-.64,1.38-1.5,2.6-2.56,3.63-1.06,1.04-2.31,1.87-3.74,2.48-1.43.62-2.97.93-4.6.93s-3.08-.31-4.49-.93c-1.41-.62-2.63-1.45-3.67-2.48s-1.87-2.25-2.48-3.63c-.62-1.38-.93-2.87-.93-4.45s.31-3.16.93-4.6c.62-1.43,1.45-2.67,2.48-3.71s2.26-1.87,3.67-2.48,2.9-.93,4.49-.93,3.16.31,4.6.93c1.43.62,2.68,1.45,3.74,2.48,1.06,1.04,1.92,2.27,2.56,3.71.64,1.43.96,2.97.96,4.6Zm-2.52,22.17v76.08h-18.39v-76.08h18.39Z"/>
      <path class="b" d="m210.18,411.33c5.64,0,10.76.92,15.39,2.74,4.62,1.83,8.58,4.42,11.86,7.79,3.29,3.36,5.82,7.46,7.6,12.31,1.78,4.84,2.67,10.26,2.67,16.24s-.89,11.47-2.67,16.31c-1.78,4.84-4.31,8.97-7.6,12.38-3.29,3.41-7.24,6.03-11.86,7.86-4.62,1.83-9.75,2.74-15.39,2.74s-10.85-.92-15.5-2.74c-4.65-1.83-8.61-4.45-11.9-7.86-3.29-3.41-5.83-7.54-7.64-12.38-1.8-4.84-2.71-10.28-2.71-16.31s.9-11.39,2.71-16.24c1.8-4.84,4.35-8.95,7.64-12.31,3.29-3.36,7.25-5.96,11.9-7.79,4.65-1.83,9.81-2.74,15.5-2.74Zm0,64.29c6.33,0,11.01-2.12,14.05-6.38,3.04-4.25,4.56-10.48,4.56-18.69s-1.52-14.46-4.56-18.76-7.72-6.45-14.05-6.45-11.19,2.16-14.27,6.49c-3.09,4.33-4.63,10.57-4.63,18.72s1.54,14.37,4.63,18.65c3.09,4.28,7.85,6.41,14.27,6.41Z"/>
    </g>
  </g>
  <g class="d">
    <g class="d">
      <path class="b" d="m357.73,400.87c-.59,1.04-1.22,1.79-1.89,2.26-.67.47-1.5.7-2.48.7-1.04,0-2.16-.38-3.37-1.15-1.21-.77-2.66-1.62-4.34-2.56-1.68-.94-3.65-1.79-5.9-2.56-2.25-.77-4.91-1.15-7.97-1.15-2.77,0-5.19.33-7.27,1-2.08.67-3.82,1.59-5.23,2.78s-2.46,2.61-3.15,4.26c-.69,1.66-1.04,3.47-1.04,5.45,0,2.52.7,4.62,2.11,6.3s3.27,3.11,5.6,4.3c2.32,1.19,4.97,2.25,7.93,3.19,2.97.94,6.01,1.94,9.12,3,3.11,1.06,6.15,2.3,9.12,3.71,2.97,1.41,5.61,3.19,7.93,5.34,2.32,2.15,4.19,4.78,5.6,7.9,1.41,3.11,2.11,6.9,2.11,11.34,0,4.84-.83,9.38-2.48,13.61-1.66,4.23-4.08,7.91-7.27,11.05-3.19,3.14-7.08,5.61-11.68,7.42-4.6,1.8-9.86,2.71-15.79,2.71-3.41,0-6.77-.33-10.08-1-3.31-.67-6.49-1.62-9.53-2.85s-5.9-2.72-8.56-4.45-5.04-3.66-7.12-5.78l5.86-9.57c.49-.69,1.14-1.27,1.93-1.74.79-.47,1.63-.7,2.52-.7,1.23,0,2.57.51,4,1.52,1.43,1.01,3.14,2.14,5.12,3.37,1.98,1.24,4.29,2.36,6.93,3.37,2.64,1.01,5.82,1.52,9.53,1.52,5.68,0,10.08-1.35,13.2-4.04,3.11-2.69,4.67-6.56,4.67-11.6,0-2.82-.7-5.12-2.11-6.9-1.41-1.78-3.27-3.27-5.6-4.49-2.32-1.21-4.97-2.24-7.93-3.08-2.97-.84-5.98-1.75-9.05-2.74-3.07-.99-6.08-2.17-9.05-3.56-2.97-1.38-5.61-3.19-7.93-5.41-2.32-2.22-4.19-5-5.6-8.34-1.41-3.34-2.11-7.45-2.11-12.35,0-3.9.78-7.71,2.34-11.42,1.56-3.71,3.82-7,6.78-9.86,2.97-2.87,6.62-5.17,10.97-6.9,4.35-1.73,9.34-2.59,14.98-2.59,6.33,0,12.16.99,17.5,2.97,5.34,1.98,9.89,4.75,13.64,8.3l-4.97,9.42Z"/>
    </g>
    <g class="d">
      <path class="b" d="m431.37,420.08c0,1.29-.22,2.55-.67,3.78-.44,1.24-1.04,2.25-1.78,3.04l-36.11,47.6h37.45v14.09h-58.73v-7.64c0-.84.2-1.84.59-3,.4-1.16.99-2.26,1.78-3.3l36.48-48.12h-36.7v-14.01h57.69v7.56Z"/>
      <path class="b" d="m443.08,423.12c8.75-8.01,19.28-12.01,31.59-12.01,4.45,0,8.43.73,11.94,2.19,3.51,1.46,6.47,3.49,8.9,6.08,2.42,2.59,4.26,5.7,5.52,9.31,1.26,3.61,1.89,7.56,1.89,11.86v48.05h-8.3c-1.73,0-3.07-.26-4-.78-.94-.52-1.68-1.57-2.22-3.15l-1.63-5.49c-1.93,1.73-3.81,3.25-5.63,4.56-1.83,1.31-3.73,2.41-5.71,3.3-1.98.89-4.09,1.57-6.34,2.04-2.25.47-4.73.7-7.45.7-3.21,0-6.18-.43-8.9-1.3-2.72-.86-5.07-2.16-7.04-3.89-1.98-1.73-3.51-3.88-4.6-6.45-1.09-2.57-1.63-5.56-1.63-8.97,0-1.93.32-3.84.96-5.75.64-1.9,1.69-3.72,3.15-5.45,1.46-1.73,3.35-3.36,5.67-4.89,2.32-1.53,5.18-2.87,8.56-4,3.39-1.14,7.33-2.06,11.83-2.78,4.5-.72,9.64-1.15,15.42-1.3v-4.45c0-5.09-1.09-8.86-3.26-11.31-2.18-2.45-5.31-3.67-9.42-3.67-2.97,0-5.43.35-7.38,1.04-1.95.69-3.67,1.47-5.15,2.34-1.48.87-2.83,1.64-4.04,2.33-1.21.69-2.56,1.04-4.04,1.04-1.29,0-2.37-.33-3.26-1-.89-.67-1.61-1.45-2.15-2.33l-3.26-5.86Zm41.97,33c-5.29.25-9.74.7-13.35,1.37-3.61.67-6.5,1.52-8.68,2.56-2.18,1.04-3.73,2.25-4.67,3.63-.94,1.38-1.41,2.89-1.41,4.52,0,3.21.95,5.51,2.85,6.9,1.9,1.38,4.39,2.08,7.45,2.08,3.76,0,7.01-.68,9.75-2.04,2.74-1.36,5.42-3.42,8.04-6.19v-12.83Z"/>
      <path class="b" d="m538.43,421.85c3.06-3.21,6.46-5.77,10.2-7.67,3.73-1.9,8-2.86,12.79-2.86,4.4,0,8.37.87,11.9,2.6,3.53,1.73,6.55,4.21,9.05,7.45,2.5,3.24,4.41,7.16,5.75,11.75,1.33,4.6,2,9.76,2,15.5,0,6.18-.77,11.79-2.3,16.83s-3.72,9.36-6.56,12.94c-2.84,3.58-6.27,6.37-10.27,8.34-4,1.98-8.45,2.97-13.35,2.97-2.37,0-4.52-.24-6.45-.7-1.93-.47-3.71-1.12-5.34-1.97-1.63-.84-3.13-1.87-4.49-3.08-1.36-1.21-2.66-2.56-3.89-4.04l-.82,5.12c-.3,1.29-.8,2.2-1.52,2.74s-1.69.82-2.93.82h-12.09v-110.19h18.31v43.45Zm0,47.01c2.08,2.52,4.34,4.3,6.79,5.34s5.03,1.56,7.75,1.56,5.35-.51,7.6-1.52c2.25-1.01,4.16-2.6,5.75-4.75,1.58-2.15,2.79-4.89,3.63-8.23.84-3.34,1.26-7.33,1.26-11.98,0-8.35-1.38-14.4-4.15-18.13-2.77-3.73-6.75-5.6-11.94-5.6-3.51,0-6.57.8-9.19,2.41s-5.12,3.87-7.49,6.78v34.11Z"/>
      <path class="b" d="m637.94,411.33c5.64,0,10.76.92,15.39,2.74,4.62,1.83,8.58,4.42,11.86,7.79,3.29,3.36,5.82,7.46,7.6,12.31s2.67,10.26,2.67,16.24-.89,11.47-2.67,16.31-4.31,8.97-7.6,12.38c-3.29,3.41-7.24,6.03-11.86,7.86-4.62,1.83-9.75,2.74-15.39,2.74s-10.85-.92-15.5-2.74c-4.65-1.83-8.61-4.45-11.9-7.86-3.29-3.41-5.83-7.54-7.64-12.38s-2.71-10.28-2.71-16.31.9-11.39,2.71-16.24,4.35-8.95,7.64-12.31c3.29-3.36,7.25-5.96,11.9-7.79,4.65-1.83,9.81-2.74,15.5-2.74Zm0,64.29c6.33,0,11.01-2.12,14.05-6.38,3.04-4.25,4.56-10.48,4.56-18.69s-1.52-14.46-4.56-18.76-7.72-6.45-14.05-6.45-11.18,2.16-14.27,6.49c-3.09,4.33-4.63,10.57-4.63,18.72s1.54,14.37,4.63,18.65c3.09,4.28,7.85,6.41,14.27,6.41Z"/>
    </g>
  </g>
</svg>